<svg xmlns="http://www.w3.org/2000/svg" version="1.1" xmlns:xlink="http://www.w3.org/1999/xlink" xmlns:svgjs="http://svgjs.dev/svgjs" viewBox="0 0 14.007577364623488 3.249980945769838"><g transform="matrix(1,0,0,1,3.096357243682475,0.5828092228849191)"><g><path d=" M 0.3375 0.008999999999999897 L 0.6645 0.008999999999999897 L 1.0035 1.0739999999999998 L 0.7065 1.0739999999999998 L 0.642 0.8654999999999998 L 0.3585 0.8654999999999998 L 0.2955 1.0739999999999998 L -0.003 1.0739999999999998 L 0.3375 0.008999999999999897 Z M 0.5955 0.6704999999999999 L 0.501 0.2954999999999999 L 0.402 0.6704999999999999 L 0.5955 0.6704999999999999 Z M 1.531430419921875 1.0829999999999997 Q 1.403930419921875 1.0829999999999997 1.312430419921875 1.041 Q 1.2209304199218751 0.9989999999999999 1.163180419921875 0.9254999999999999 Q 1.105430419921875 0.8519999999999999 1.078430419921875 0.7567499999999998 Q 1.051430419921875 0.6614999999999998 1.051430419921875 0.5564999999999999 L 1.051430419921875 0.008999999999999897 L 1.343930419921875 0.008999999999999897 L 1.343930419921875 0.5564999999999999 Q 1.343930419921875 0.6089999999999998 1.354430419921875 0.6569999999999998 Q 1.364930419921875 0.7049999999999998 1.387430419921875 0.7424999999999998 Q 1.409930419921875 0.7799999999999998 1.445180419921875 0.8017499999999999 Q 1.4804304199218752 0.8234999999999999 1.531430419921875 0.8234999999999999 Q 1.583930419921875 0.8234999999999999 1.6199304199218751 0.8017499999999999 Q 1.6559304199218752 0.7799999999999998 1.677680419921875 0.7417499999999999 Q 1.699430419921875 0.7034999999999998 1.709930419921875 0.6554999999999999 Q 1.720430419921875 0.6074999999999998 1.720430419921875 0.5564999999999999 L 1.720430419921875 0.008999999999999897 L 2.012930419921875 0.008999999999999897 L 2.012930419921875 0.5564999999999999 Q 2.012930419921875 0.6674999999999998 1.9836804199218752 0.7634999999999998 Q 1.954430419921875 0.8594999999999998 1.895930419921875 0.9314999999999998 Q 1.837430419921875 1.0034999999999998 1.746680419921875 1.0432499999999998 Q 1.6559304199218752 1.0829999999999997 1.531430419921875 1.0829999999999997 Z M 2.84090185546875 0.3569999999999999 Q 2.84090185546875 0.3569999999999999 2.81540185546875 0.34199999999999986 Q 2.7899018554687505 0.32699999999999985 2.74790185546875 0.3082499999999998 Q 2.7059018554687504 0.28949999999999987 2.6564018554687503 0.27449999999999986 Q 2.60690185546875 0.25949999999999984 2.55890185546875 0.25949999999999984 Q 2.52140185546875 0.25949999999999984 2.49740185546875 0.27149999999999985 Q 2.47340185546875 0.28349999999999986 2.47340185546875 0.31199999999999983 Q 2.47340185546875 0.33899999999999986 2.49740185546875 0.3554999999999998 Q 2.52140185546875 0.3719999999999998 2.5656518554687504 0.38549999999999984 Q 2.6099018554687503 0.3989999999999998 2.6714018554687504 0.41849999999999987 Q 2.77040185546875 0.4484999999999998 2.8424018554687502 0.4874999999999998 Q 2.9144018554687503 0.5264999999999999 2.9534018554687504 0.5872499999999998 Q 2.99240185546875 0.6479999999999999 2.99240185546875 0.7484999999999998 Q 2.99240185546875 0.8444999999999998 2.95790185546875 0.9097499999999998 Q 2.92340185546875 0.9749999999999999 2.86490185546875 1.0139999999999998 Q 2.80640185546875 1.053 2.73440185546875 1.07025 Q 2.66240185546875 1.0875 2.5874018554687503 1.0875 Q 2.51090185546875 1.0875 2.42765185546875 1.0717499999999998 Q 2.3444018554687505 1.0559999999999998 2.26640185546875 1.0282499999999999 Q 2.1884018554687503 1.0005 2.12390185546875 0.9629999999999999 L 2.2499018554687504 0.7064999999999999 Q 2.2499018554687504 0.7064999999999999 2.2799018554687502 0.7244999999999998 Q 2.30990185546875 0.7424999999999998 2.35940185546875 0.7649999999999999 Q 2.4089018554687502 0.7874999999999999 2.4696518554687503 0.8054999999999999 Q 2.5304018554687504 0.8234999999999999 2.59190185546875 0.8234999999999999 Q 2.63990185546875 0.8234999999999999 2.6586518554687504 0.8107499999999999 Q 2.67740185546875 0.7979999999999998 2.67740185546875 0.7769999999999999 Q 2.67740185546875 0.7454999999999998 2.6444018554687503 0.7282499999999998 Q 2.6114018554687504 0.7109999999999999 2.55815185546875 0.6952499999999998 Q 2.5049018554687503 0.6794999999999998 2.44040185546875 0.6584999999999999 Q 2.34740185546875 0.6269999999999998 2.28740185546875 0.5872499999999998 Q 2.2274018554687505 0.5474999999999999 2.1989018554687503 0.4927499999999998 Q 2.17040185546875 0.43799999999999983 2.17040185546875 0.3599999999999999 Q 2.17040185546875 0.24149999999999983 2.2259018554687504 0.1619999999999998 Q 2.2814018554687503 0.0824999999999998 2.37215185546875 0.04124999999999979 Q 2.46290185546875 -2.220446049250313e-16 2.56790185546875 -2.220446049250313e-16 Q 2.6459018554687503 -2.220446049250313e-16 2.7186518554687504 0.018749999999999822 Q 2.7914018554687505 0.03749999999999987 2.8551518554687503 0.06449999999999978 Q 2.91890185546875 0.0914999999999998 2.96690185546875 0.11549999999999983 L 2.84090185546875 0.3569999999999999 Z M 3.96581689453125 0.2639999999999998 L 3.65981689453125 0.2639999999999998 L 3.65981689453125 1.0739999999999998 L 3.3673168945312506 1.0739999999999998 L 3.3673168945312506 0.2639999999999998 L 3.0598168945312505 0.2639999999999998 L 3.0598168945312505 0.008999999999999897 L 3.96581689453125 0.008999999999999897 L 3.96581689453125 0.2639999999999998 Z M 4.087260498046875 1.0739999999999998 L 4.087260498046875 0.008999999999999897 L 4.379760498046876 0.008999999999999897 L 4.379760498046876 1.0739999999999998 L 4.087260498046875 1.0739999999999998 Z M 4.8701938476562505 0.5504999999999999 L 4.8701938476562505 1.0739999999999998 L 4.57769384765625 1.0739999999999998 L 4.57769384765625 0.008999999999999897 L 4.80569384765625 0.008999999999999897 L 5.23319384765625 0.5504999999999999 L 5.23319384765625 0.008999999999999897 L 5.5256938476562505 0.008999999999999897 L 5.5256938476562505 1.0739999999999998 L 5.293193847656251 1.0739999999999998 L 4.8701938476562505 0.5504999999999999 Z M 6.017608154296875 0.5324999999999999 Q 6.017608154296875 0.43499999999999983 6.0543581542968745 0.34124999999999983 Q 6.091108154296874 0.24749999999999983 6.161608154296874 0.17099999999999982 Q 6.232108154296874 0.0944999999999998 6.333358154296874 0.04874999999999985 Q 6.434608154296875 0.0029999999999998916 6.562108154296874 0.0029999999999998916 Q 6.715108154296875 0.0029999999999998916 6.829108154296875 0.06674999999999986 Q 6.9431081542968744 0.13049999999999984 6.998608154296875 0.23549999999999982 L 6.775108154296874 0.39449999999999985 Q 6.7556081542968744 0.34199999999999986 6.718858154296875 0.3134999999999998 Q 6.682108154296874 0.2849999999999998 6.6393581542968745 0.2737499999999998 Q 6.596608154296875 0.26249999999999984 6.556108154296875 0.26249999999999984 Q 6.493108154296874 0.26249999999999984 6.447358154296874 0.2872499999999998 Q 6.401608154296874 0.31199999999999983 6.372358154296874 0.3524999999999998 Q 6.343108154296875 0.3929999999999998 6.328858154296874 0.4424999999999998 Q 6.314608154296875 0.4919999999999999 6.314608154296875 0.5414999999999999 Q 6.314608154296875 0.5969999999999998 6.331108154296874 0.6479999999999999 Q 6.347608154296875 0.6989999999999998 6.379108154296874 0.7387499999999998 Q 6.410608154296875 0.7784999999999999 6.456358154296875 0.8009999999999998 Q 6.502108154296875 0.8234999999999999 6.559108154296874 0.8234999999999999 Q 6.599608154296875 0.8234999999999999 6.641608154296875 0.8107499999999999 Q 6.683608154296874 0.7979999999999998 6.718108154296875 0.7694999999999999 Q 6.752608154296874 0.7409999999999999 6.770608154296875 0.6929999999999998 L 7.009108154296874 0.8354999999999998 Q 6.977608154296875 0.9134999999999999 6.904108154296875 0.9689999999999999 Q 6.830608154296875 1.0244999999999997 6.737608154296875 1.0537499999999997 Q 6.644608154296875 1.0829999999999997 6.553108154296875 1.0829999999999997 Q 6.434608154296875 1.0829999999999997 6.3363581542968745 1.03575 Q 6.238108154296874 0.9884999999999998 6.166858154296874 0.9097499999999998 Q 6.095608154296874 0.8309999999999998 6.056608154296875 0.7327499999999998 Q 6.017608154296875 0.6344999999999998 6.017608154296875 0.5324999999999999 Z M 7.591005615234375 1.0829999999999997 Q 7.469505615234374 1.0829999999999997 7.370505615234374 1.0372499999999998 Q 7.271505615234374 0.9914999999999998 7.200255615234374 0.9142499999999998 Q 7.129005615234374 0.8369999999999999 7.090755615234374 0.7402499999999999 Q 7.052505615234375 0.6434999999999998 7.052505615234375 0.5399999999999998 Q 7.052505615234375 0.4334999999999999 7.093005615234374 0.3374999999999998 Q 7.133505615234374 0.24149999999999983 7.206255615234374 0.16574999999999984 Q 7.279005615234374 0.08999999999999986 7.3787556152343745 0.046499999999999764 Q 7.478505615234374 0.0029999999999998916 7.597005615234374 0.0029999999999998916 Q 7.718505615234374 0.0029999999999998916 7.817505615234374 0.04874999999999985 Q 7.9165056152343745 0.0944999999999998 7.9870056152343745 0.17249999999999988 Q 8.057505615234374 0.25049999999999983 8.095755615234374 0.34724999999999984 Q 8.134005615234374 0.44399999999999984 8.134005615234374 0.5459999999999998 Q 8.134005615234374 0.6509999999999998 8.094255615234374 0.7469999999999999 Q 8.054505615234374 0.8429999999999999 7.981755615234374 0.9187499999999998 Q 7.909005615234374 0.9944999999999998 7.810005615234374 1.0387499999999998 Q 7.711005615234374 1.0829999999999997 7.591005615234375 1.0829999999999997 Z M 7.349505615234374 0.5429999999999998 Q 7.349505615234374 0.5969999999999998 7.364505615234374 0.6472499999999999 Q 7.3795056152343745 0.6974999999999998 7.409505615234374 0.7372499999999998 Q 7.439505615234374 0.7769999999999999 7.485255615234374 0.8002499999999999 Q 7.531005615234374 0.8234999999999999 7.594005615234375 0.8234999999999999 Q 7.657005615234374 0.8234999999999999 7.703505615234374 0.7994999999999999 Q 7.750005615234374 0.7754999999999999 7.779255615234375 0.7342499999999998 Q 7.808505615234374 0.6929999999999998 7.8227556152343745 0.6427499999999998 Q 7.837005615234374 0.5924999999999998 7.837005615234374 0.5399999999999998 Q 7.837005615234374 0.4859999999999999 7.822005615234374 0.4364999999999998 Q 7.807005615234374 0.3869999999999998 7.7770056152343745 0.34724999999999984 Q 7.747005615234374 0.3074999999999998 7.700505615234374 0.2849999999999998 Q 7.654005615234374 0.26249999999999984 7.592505615234375 0.26249999999999984 Q 7.529505615234374 0.26249999999999984 7.483755615234374 0.28649999999999987 Q 7.438005615234374 0.3104999999999998 7.408005615234374 0.35024999999999984 Q 7.3780056152343745 0.3899999999999998 7.363755615234374 0.4402499999999998 Q 7.349505615234374 0.4904999999999998 7.349505615234374 0.5429999999999998 Z M 8.75343603515625 1.0829999999999997 Q 8.631936035156249 1.0829999999999997 8.53293603515625 1.0372499999999998 Q 8.43393603515625 0.9914999999999998 8.36268603515625 0.9142499999999998 Q 8.29143603515625 0.8369999999999999 8.253186035156249 0.7402499999999999 Q 8.21493603515625 0.6434999999999998 8.21493603515625 0.5399999999999998 Q 8.21493603515625 0.4334999999999999 8.255436035156249 0.3374999999999998 Q 8.29593603515625 0.24149999999999983 8.36868603515625 0.16574999999999984 Q 8.441436035156249 0.08999999999999986 8.54118603515625 0.046499999999999764 Q 8.64093603515625 0.0029999999999998916 8.75943603515625 0.0029999999999998916 Q 8.88093603515625 0.0029999999999998916 8.97993603515625 0.04874999999999985 Q 9.07893603515625 0.0944999999999998 9.14943603515625 0.17249999999999988 Q 9.21993603515625 0.25049999999999983 9.25818603515625 0.34724999999999984 Q 9.29643603515625 0.44399999999999984 9.29643603515625 0.5459999999999998 Q 9.29643603515625 0.6509999999999998 9.25668603515625 0.7469999999999999 Q 9.21693603515625 0.8429999999999999 9.144186035156249 0.9187499999999998 Q 9.07143603515625 0.9944999999999998 8.97243603515625 1.0387499999999998 Q 8.87343603515625 1.0829999999999997 8.75343603515625 1.0829999999999997 Z M 8.51193603515625 0.5429999999999998 Q 8.51193603515625 0.5969999999999998 8.52693603515625 0.6472499999999999 Q 8.54193603515625 0.6974999999999998 8.57193603515625 0.7372499999999998 Q 8.60193603515625 0.7769999999999999 8.64768603515625 0.8002499999999999 Q 8.69343603515625 0.8234999999999999 8.75643603515625 0.8234999999999999 Q 8.819436035156249 0.8234999999999999 8.865936035156249 0.7994999999999999 Q 8.912436035156249 0.7754999999999999 8.94168603515625 0.7342499999999998 Q 8.97093603515625 0.6929999999999998 8.98518603515625 0.6427499999999998 Q 8.99943603515625 0.5924999999999998 8.99943603515625 0.5399999999999998 Q 8.99943603515625 0.4859999999999999 8.98443603515625 0.4364999999999998 Q 8.96943603515625 0.3869999999999998 8.93943603515625 0.34724999999999984 Q 8.90943603515625 0.3074999999999998 8.862936035156249 0.2849999999999998 Q 8.81643603515625 0.26249999999999984 8.75493603515625 0.26249999999999984 Q 8.69193603515625 0.26249999999999984 8.64618603515625 0.28649999999999987 Q 8.60043603515625 0.3104999999999998 8.57043603515625 0.35024999999999984 Q 8.54043603515625 0.3899999999999998 8.52618603515625 0.4402499999999998 Q 8.51193603515625 0.4904999999999998 8.51193603515625 0.5429999999999998 Z M 9.435866455078125 1.0739999999999998 L 9.435866455078125 0.008999999999999897 L 9.728366455078126 0.008999999999999897 L 9.728366455078126 0.4139999999999998 L 10.052366455078126 0.008999999999999897 L 10.382366455078126 0.008999999999999897 L 9.995366455078125 0.4859999999999999 L 10.409366455078125 1.0739999999999998 L 10.073366455078125 1.0739999999999998 L 9.809366455078125 0.6824999999999999 L 9.728366455078126 0.7664999999999998 L 9.728366455078126 1.0739999999999998 L 9.435866455078125 1.0739999999999998 Z" fill="#ffffff" fill-rule="nonzero"></path></g><g><path d=" M 0.378 1.6516125000000001 Q 0.36675 1.6388625 0.35175 1.6287375000000002 Q 0.33675 1.6186125000000002 0.318 1.6111125000000002 Q 0.29925 1.6036125 0.277875 1.5991125000000002 Q 0.2565 1.5946125000000002 0.2325 1.5946125000000002 Q 0.16275 1.5946125000000002 0.130125 1.6212375 Q 0.0975 1.6478625 0.0975 1.6936125000000002 Q 0.0975 1.7251125 0.112875 1.7431125 Q 0.12825 1.7611125 0.16125 1.7723625 Q 0.19425 1.7836125 0.24525 1.7956125 Q 0.30225 1.8076125 0.3435 1.8241125 Q 0.38475 1.8406125000000002 0.40725 1.8687375000000002 Q 0.42975 1.8968625000000001 0.42975 1.9448625000000002 Q 0.42975 1.9816125000000002 0.41550000000000004 2.0086125 Q 0.40125 2.0356125 0.37575000000000003 2.0536125000000003 Q 0.35025 2.0716125 0.315 2.0802375 Q 0.27975 2.0888625000000003 0.23775000000000002 2.0888625000000003 Q 0.1965 2.0888625000000003 0.15862500000000002 2.0802375 Q 0.12075 2.0716125 0.08700000000000001 2.0547375000000003 Q 0.05325 2.0378625 0.024 2.0116125 L 0.05025 1.9688625000000002 Q 0.0645 1.9838625 0.084375 1.9969875000000001 Q 0.10425 2.0101125 0.128625 2.0206125 Q 0.153 2.0311125000000003 0.181125 2.0367375 Q 0.20925 2.0423625000000003 0.23925000000000002 2.0423625000000003 Q 0.303 2.0423625000000003 0.338625 2.0191125000000003 Q 0.37425 1.9958625 0.37425 1.9501125000000001 Q 0.37425 1.9171125 0.35625 1.8972375000000001 Q 0.33825 1.8773625 0.30225 1.8646125000000002 Q 0.26625 1.8518625000000002 0.21375 1.8398625000000002 Q 0.15825 1.8271125000000001 0.12 1.8113625 Q 0.08175 1.7956125 0.062625 1.7697375000000002 Q 0.043500000000000004 1.7438625 0.043500000000000004 1.7011125 Q 0.043500000000000004 1.6516125000000001 0.067875 1.6174875000000002 Q 0.09225 1.5833625000000002 0.135 1.5657375 Q 0.17775 1.5481125000000002 0.23325 1.5481125000000002 Q 0.2685 1.5481125000000002 0.298875 1.5552375 Q 0.32925 1.5623625 0.355125 1.5758625 Q 0.381 1.5893625 0.4035 1.6096125000000001 L 0.378 1.6516125000000001 Z M 0.7439959716796876 2.0881125000000003 Q 0.6877459716796875 2.0881125000000003 0.6419959716796875 2.0656125000000003 Q 0.5962459716796875 2.0431125000000003 0.5632459716796875 2.0044875 Q 0.5302459716796875 1.9658625 0.5122459716796876 1.9174875 Q 0.49424597167968753 1.8691125000000002 0.49424597167968753 1.8181125000000002 Q 0.49424597167968753 1.7648625 0.5129959716796875 1.7164875000000002 Q 0.5317459716796875 1.6681125 0.5658709716796875 1.6302375000000002 Q 0.5999959716796875 1.5923625000000001 0.6457459716796875 1.5702375000000002 Q 0.6914959716796876 1.5481125000000002 0.7447459716796876 1.5481125000000002 Q 0.8009959716796875 1.5481125000000002 0.8467459716796875 1.5713625000000002 Q 0.8924959716796875 1.5946125000000002 0.9251209716796875 1.6336125000000001 Q 0.9577459716796874 1.6726125 0.9757459716796875 1.7206125 Q 0.9937459716796875 1.7686125000000001 0.9937459716796875 1.8188625 Q 0.9937459716796875 1.8721125 0.9749959716796874 1.9204875000000001 Q 0.9562459716796875 1.9688625000000002 0.9224959716796874 2.0067375000000003 Q 0.8887459716796875 2.0446125 0.8429959716796875 2.0663625000000003 Q 0.7972459716796876 2.0881125000000003 0.7439959716796876 2.0881125000000003 Z M 0.5467459716796875 1.8181125000000002 Q 0.5467459716796875 1.8616125000000001 0.5609959716796875 1.9017375 Q 0.5752459716796875 1.9418625 0.6014959716796875 1.9729875000000001 Q 0.6277459716796875 2.0041125 0.6641209716796875 2.0224875 Q 0.7004959716796875 2.0408625000000002 0.7439959716796876 2.0408625000000002 Q 0.7897459716796875 2.0408625000000002 0.8261209716796876 2.0217375 Q 0.8624959716796875 2.0026125 0.8883709716796875 1.9707375 Q 0.9142459716796876 1.9388625000000002 0.9277459716796875 1.8991125000000002 Q 0.9412459716796875 1.8593625 0.9412459716796875 1.8181125000000002 Q 0.9412459716796875 1.7746125000000001 0.9269959716796875 1.7348625000000002 Q 0.9127459716796875 1.6951125 0.8861209716796875 1.6636125000000002 Q 0.8594959716796875 1.6321125 0.8234959716796875 1.6141125 Q 0.7874959716796874 1.5961125 0.7439959716796876 1.5961125 Q 0.6989959716796875 1.5961125 0.6626209716796875 1.6148625 Q 0.6262459716796875 1.6336125000000001 0.6003709716796874 1.6654875000000002 Q 0.5744959716796875 1.6973625 0.5606209716796875 1.7371125 Q 0.5467459716796875 1.7768625 0.5467459716796875 1.8181125000000002 Z M 1.1002283935546875 2.0843625 L 1.1002283935546875 1.5518625000000001 L 1.4497283935546874 1.5518625000000001 L 1.4497283935546874 1.5983625000000001 L 1.1527283935546875 1.5983625000000001 L 1.1527283935546875 1.7941125000000002 L 1.4032283935546874 1.7941125000000002 L 1.4032283935546874 1.8376125 L 1.1527283935546875 1.8376125 L 1.1527283935546875 2.0843625 L 1.1002283935546875 2.0843625 Z M 1.9274703369140624 1.5983625000000001 L 1.7377203369140624 1.5983625000000001 L 1.7377203369140624 2.0843625 L 1.6852203369140626 2.0843625 L 1.6852203369140626 1.5983625000000001 L 1.4954703369140625 1.5983625000000001 L 1.4954703369140625 1.5518625000000001 L 1.9274703369140624 1.5518625000000001 L 1.9274703369140624 1.5983625000000001 Z M 2.2147093505859377 1.5556125 L 2.2642093505859373 1.5556125 L 2.3392093505859375 1.7446125000000001 L 2.4149593505859377 1.5556125 L 2.4652093505859374 1.5556125 L 2.3722093505859374 1.7828625000000002 L 2.4742093505859373 2.0236125 L 2.6669593505859375 1.5518625000000001 L 2.7239593505859374 1.5518625000000001 L 2.4982093505859373 2.0843625 L 2.4517093505859373 2.0843625 L 2.3399593505859375 1.8211125000000001 L 2.2274593505859377 2.0843625 L 2.1817093505859377 2.0843625 L 1.9567093505859374 1.5518625000000001 L 2.0129593505859376 1.5518625000000001 L 2.2064593505859373 2.0236125 L 2.3077093505859376 1.7828625000000002 L 2.2147093505859377 1.5556125 Z M 2.926385009765625 1.5518625000000001 L 2.9706350097656253 1.5518625000000001 L 3.1918850097656253 2.0843625 L 3.136385009765625 2.0843625 L 3.067385009765625 1.9178625 L 2.8281350097656253 1.9178625 L 2.759885009765625 2.0843625 L 2.703635009765625 2.0843625 L 2.926385009765625 1.5518625000000001 Z M 3.055385009765625 1.8766125 L 2.948135009765625 1.6133625 L 2.8393850097656252 1.8766125 L 3.055385009765625 1.8766125 Z M 3.2758582763671873 2.0843625 L 3.2758582763671873 1.5518625000000001 L 3.5008582763671874 1.5518625000000001 Q 3.5353582763671874 1.5518625000000001 3.5638582763671875 1.5661125 Q 3.5923582763671873 1.5803625000000001 3.6137332763671877 1.6047375000000001 Q 3.6351082763671876 1.6291125000000002 3.6467332763671876 1.6587375 Q 3.6583582763671876 1.6883625000000002 3.6583582763671876 1.7191125 Q 3.6583582763671876 1.7573625000000002 3.6437332763671875 1.7911125 Q 3.6291082763671874 1.8248625 3.6024832763671872 1.8481125 Q 3.5758582763671876 1.8713625 3.5398582763671875 1.8788625 L 3.6703582763671876 2.0843625 L 3.6111082763671876 2.0843625 L 3.4858582763671873 1.8878625000000002 L 3.3283582763671875 1.8878625000000002 L 3.3283582763671875 2.0843625 L 3.2758582763671873 2.0843625 Z M 3.3283582763671875 1.8413625000000002 L 3.5023582763671874 1.8413625000000002 Q 3.5338582763671873 1.8413625000000002 3.5571082763671873 1.8241125 Q 3.5803582763671873 1.8068625 3.5931082763671873 1.7787375 Q 3.6058582763671874 1.7506125000000001 3.6058582763671874 1.7191125 Q 3.6058582763671874 1.6868625000000002 3.5912332763671873 1.6594875 Q 3.5766082763671876 1.6321125 3.5522332763671876 1.6152375 Q 3.5278582763671875 1.5983625000000001 3.4978582763671873 1.5983625000000001 L 3.3283582763671875 1.5983625000000001 L 3.3283582763671875 1.8413625000000002 Z M 4.130823852539062 2.0378625 L 4.130823852539062 2.0843625 L 3.773073852539062 2.0843625 L 3.773073852539062 1.5518625000000001 L 4.124073852539063 1.5518625000000001 L 4.124073852539063 1.5983625000000001 L 3.8255738525390623 1.5983625000000001 L 3.8255738525390623 1.7903625 L 4.085823852539062 1.7903625 L 4.085823852539062 1.8346125000000002 L 3.8255738525390623 1.8346125000000002 L 3.8255738525390623 2.0378625 L 4.130823852539062 2.0378625 Z M 4.7937425537109375 2.0378625 L 4.7937425537109375 2.0843625 L 4.435992553710937 2.0843625 L 4.435992553710937 1.5518625000000001 L 4.786992553710937 1.5518625000000001 L 4.786992553710937 1.5983625000000001 L 4.4884925537109375 1.5983625000000001 L 4.4884925537109375 1.7903625 L 4.748742553710938 1.7903625 L 4.748742553710938 1.8346125000000002 L 4.4884925537109375 1.8346125000000002 L 4.4884925537109375 2.0378625 L 4.7937425537109375 2.0378625 Z M 4.952703369140625 1.6486125 L 4.952703369140625 2.0843625 L 4.900203369140625 2.0843625 L 4.900203369140625 1.5518625000000001 L 4.943703369140625 1.5518625000000001 L 5.293203369140625 1.9958625 L 5.293203369140625 1.5526125 L 5.345703369140625 1.5526125 L 5.345703369140625 2.0843625 L 5.296953369140625 2.0843625 L 4.952703369140625 1.6486125 Z M 5.700432861328125 2.0881125000000003 Q 5.647182861328125 2.0881125000000003 5.601432861328125 2.0652375000000003 Q 5.555682861328125 2.0423625000000003 5.521932861328126 2.0033625 Q 5.488182861328125 1.9643625 5.469807861328126 1.9163625000000002 Q 5.451432861328126 1.8683625000000001 5.451432861328126 1.8173625000000002 Q 5.451432861328126 1.7633625000000002 5.469807861328126 1.7149875 Q 5.488182861328125 1.6666125 5.521182861328126 1.6291125000000002 Q 5.554182861328125 1.5916125 5.599182861328125 1.5698625000000002 Q 5.644182861328125 1.5481125000000002 5.697432861328125 1.5481125000000002 Q 5.776182861328126 1.5481125000000002 5.825682861328126 1.5803625000000001 Q 5.875182861328126 1.6126125 5.900682861328125 1.6643625000000002 L 5.860182861328125 1.6913625 Q 5.834682861328125 1.6418625000000002 5.791932861328125 1.6186125000000002 Q 5.7491828613281255 1.5953625000000002 5.696682861328125 1.5953625000000002 Q 5.652432861328125 1.5953625000000002 5.616807861328126 1.6141125 Q 5.581182861328125 1.6328625 5.555682861328125 1.6643625000000002 Q 5.530182861328125 1.6958625 5.517057861328126 1.7356125000000002 Q 5.503932861328125 1.7753625000000002 5.503932861328125 1.8181125000000002 Q 5.503932861328125 1.8631125000000002 5.518932861328126 1.9032375000000001 Q 5.533932861328125 1.9433625 5.5616828613281255 1.9744875000000002 Q 5.589432861328126 2.0056125000000002 5.625807861328125 2.0232375 Q 5.662182861328126 2.0408625000000002 5.704182861328126 2.0408625000000002 Q 5.752932861328126 2.0408625000000002 5.7964328613281255 2.0164875 Q 5.839932861328125 1.9921125000000002 5.879682861328125 1.9411125 L 5.879682861328125 1.9966125000000001 Q 5.803932861328126 2.0881125000000003 5.700432861328125 2.0881125000000003 Z M 5.871432861328126 1.8631125000000002 L 5.752932861328126 1.8631125000000002 L 5.752932861328126 1.8226125000000002 L 5.915682861328126 1.8226125000000002 L 5.915682861328126 2.0843625 L 5.871432861328126 2.0843625 L 5.871432861328126 1.8631125000000002 Z M 6.031139648437501 2.0843625 L 6.031139648437501 1.5518625000000001 L 6.083639648437501 1.5518625000000001 L 6.083639648437501 2.0843625 L 6.031139648437501 2.0843625 Z M 6.277129028320314 1.6486125 L 6.277129028320314 2.0843625 L 6.224629028320313 2.0843625 L 6.224629028320313 1.5518625000000001 L 6.268129028320313 1.5518625000000001 L 6.617629028320313 1.9958625 L 6.617629028320313 1.5526125 L 6.670129028320313 1.5526125 L 6.670129028320313 2.0843625 L 6.621379028320313 2.0843625 L 6.277129028320314 1.6486125 Z M 7.168858520507814 2.0378625 L 7.168858520507814 2.0843625 L 6.811108520507814 2.0843625 L 6.811108520507814 1.5518625000000001 L 7.162108520507814 1.5518625000000001 L 7.162108520507814 1.5983625000000001 L 6.863608520507814 1.5983625000000001 L 6.863608520507814 1.7903625 L 7.123858520507814 1.7903625 L 7.123858520507814 1.8346125000000002 L 6.863608520507814 1.8346125000000002 L 6.863608520507814 2.0378625 L 7.168858520507814 2.0378625 Z M 7.633069335937502 2.0378625 L 7.633069335937502 2.0843625 L 7.2753193359375015 2.0843625 L 7.2753193359375015 1.5518625000000001 L 7.626319335937501 1.5518625000000001 L 7.626319335937501 1.5983625000000001 L 7.327819335937502 1.5983625000000001 L 7.327819335937502 1.7903625 L 7.588069335937502 1.7903625 L 7.588069335937502 1.8346125000000002 L 7.327819335937502 1.8346125000000002 L 7.327819335937502 2.0378625 L 7.633069335937502 2.0378625 Z M 7.739530151367189 2.0843625 L 7.739530151367189 1.5518625000000001 L 7.96453015136719 1.5518625000000001 Q 7.999030151367189 1.5518625000000001 8.02753015136719 1.5661125 Q 8.056030151367189 1.5803625000000001 8.07740515136719 1.6047375000000001 Q 8.098780151367189 1.6291125000000002 8.110405151367189 1.6587375 Q 8.12203015136719 1.6883625000000002 8.12203015136719 1.7191125 Q 8.12203015136719 1.7573625000000002 8.107405151367189 1.7911125 Q 8.09278015136719 1.8248625 8.06615515136719 1.8481125 Q 8.03953015136719 1.8713625 8.003530151367189 1.8788625 L 8.13403015136719 2.0843625 L 8.07478015136719 2.0843625 L 7.949530151367189 1.8878625000000002 L 7.7920301513671895 1.8878625000000002 L 7.7920301513671895 2.0843625 L 7.739530151367189 2.0843625 Z M 7.7920301513671895 1.8413625000000002 L 7.966030151367189 1.8413625000000002 Q 7.997530151367189 1.8413625000000002 8.02078015136719 1.8241125 Q 8.04403015136719 1.8068625 8.056780151367189 1.7787375 Q 8.06953015136719 1.7506125000000001 8.06953015136719 1.7191125 Q 8.06953015136719 1.6868625000000002 8.054905151367189 1.6594875 Q 8.04028015136719 1.6321125 8.015905151367189 1.6152375 Q 7.991530151367189 1.5983625000000001 7.96153015136719 1.5983625000000001 L 7.7920301513671895 1.5983625000000001 L 7.7920301513671895 1.8413625000000002 Z" fill="#fbe585" fill-rule="nonzero"></path></g><g clip-path="url(&quot;#SvgjsClipPath1022&quot;)"><path d=" M -1.162631641461192 2.0778026387404465 L -1.162631641461192 0.45178986423554424 L -1.3923840793605302 0.5844435378494961 L -1.3923840793605302 1.357889797564793 L -1.2914546968677207 1.416089797953812 L -1.2914546968677207 2.0778026387404465 Z M -1.6060098262429885 2.0778026387404465 L -1.6060098262429885 0.9449872493503388 L -1.835836336870095 0.8123229939181348 L -1.835836336870095 2.0778026387404465 Z M -2.1471005207688174 2.0778026387404465 L -2.0367215745764824 2.0778026387404465 L -2.0367215745764824 1.7177456908792212 L -1.8931580463441509 1.6348583085070056 L -1.8931580463441509 1.207977178380935 L -1.9173586646877316 1.2219451784742992 L -2.1471005207688174 1.3545882702699987 Z M -1.6635114266273385 0.8457932850509462 L -1.5486457894959191 0.9121095400396694 L -1.5486457894959191 1.2677856151443403 L -1.449737534289347 1.324874524616841 L -1.449737534289347 0.551460010356302 L -1.30709462424499 0.4690911370784623 L -1.30709462424499 0.04835804335712185 L -1.6635114266273385 0.25415324473269085 Z M -0.8172728391527571 1.6726671451233623 L -0.9034617488197667 1.6229325993363835 L -0.9034617488197667 2.1351878391240184 L -0.9608152037485835 2.1351878391240184 L -0.9608152037485835 1.1607293598833042 L -1.1052358592593678 1.0773657956897253 L -1.1052358592593678 2.1352301663970294 L -1.3488928063425554 2.1352301663970294 L -1.3488928063425554 1.449105070901764 L -1.449737534289347 1.3909050705127457 L -1.5486457894959191 1.3337632519489822 L -1.5486457894959191 2.1352195845787767 L -1.8931897917989087 2.1352195845787767 L -1.8931897917989087 1.7008147816751429 L -1.9793469560111605 1.7505493274621218 L -1.9793469560111605 2.1351878391240184 L -2.5644156871945847 2.1351878391240184 L -2.5644156871945847 2.0778026387404465 L -2.204538630243652 2.0778026387404465 L -2.204538630243652 1.3216153245950564 L -1.8931897917989087 1.1418725597572625 L -1.8931897917989087 0.7132348478012682 L -1.7209072088291628 0.8127039393752267 L -1.7209072088291628 0.22118029905774894 L -1.2496882602249133 -0.05085708457877566 L -1.2496882602249133 0.4359700459479845 L -1.1052358592593678 0.3525641544813949 L -1.1052358592593678 1.0113987407033362 L -0.9034617488197667 1.1278833960273933 L -0.9034617488197667 1.556976126168247 L -0.7598664751326802 1.6399058358134724 L -0.7598664751326802 2.0778026387404465 L -0.3999999999999999 2.0778026387404465 L -0.3999999999999999 2.1351984209422703 L -0.8172728391527571 2.1351984209422703 Z" fill="#1192dc" transform="matrix(1,0,0,1,0,0)" fill-rule="evenodd"></path></g></g><defs><clipPath id="SvgjsClipPath1022"><path d=" M -2.5644156871945847 -0.050867666397028666 h 2.1644156871945848 v 2.1860978327940574 h -2.1644156871945848 Z"></path></clipPath></defs></svg>